<?xml version="1.0" encoding="UTF-8"?>
<svg id="Layer_1" data-name="Layer 1" xmlns="http://www.w3.org/2000/svg" xmlns:xlink="http://www.w3.org/1999/xlink" viewBox="0 0 151.08 175.23">
  <defs>
    <style>
      .cls-1 {
        fill: url(#linear-gradient);
      }

      .cls-2 {
        fill: url(#linear-gradient-8);
      }

      .cls-3 {
        fill: url(#linear-gradient-9);
      }

      .cls-4 {
        fill: url(#linear-gradient-3);
      }

      .cls-5 {
        fill: url(#linear-gradient-4);
      }

      .cls-6 {
        fill: url(#linear-gradient-2);
      }

      .cls-7 {
        fill: url(#linear-gradient-6);
      }

      .cls-8 {
        fill: url(#linear-gradient-7);
      }

      .cls-9 {
        fill: url(#linear-gradient-5);
      }

      .cls-10 {
        fill: url(#linear-gradient-14);
      }

      .cls-11 {
        fill: url(#linear-gradient-18);
      }

      .cls-12 {
        fill: url(#linear-gradient-15);
      }

      .cls-13 {
        fill: url(#linear-gradient-16);
      }

      .cls-14 {
        fill: url(#linear-gradient-17);
      }

      .cls-15 {
        fill: url(#linear-gradient-13);
      }

      .cls-16 {
        fill: url(#linear-gradient-12);
      }

      .cls-17 {
        fill: url(#linear-gradient-10);
      }

      .cls-18 {
        fill: url(#linear-gradient-11);
      }
    </style>
    <linearGradient id="linear-gradient" x1="9.65" y1="175.83" x2="46.72" y2="214.33" gradientUnits="userSpaceOnUse">
      <stop offset=".65" stop-color="#b67d3f"/>
      <stop offset=".85" stop-color="#b67d3f"/>
    </linearGradient>
    <linearGradient id="linear-gradient-2" x1="18.59" y1="167.22" x2="55.66" y2="205.72" xlink:href="#linear-gradient"/>
    <linearGradient id="linear-gradient-3" x1="27.91" y1="158.25" x2="64.98" y2="196.75" xlink:href="#linear-gradient"/>
    <linearGradient id="linear-gradient-4" x1="34.54" y1="151.86" x2="71.61" y2="190.37" xlink:href="#linear-gradient"/>
    <linearGradient id="linear-gradient-5" x1="46.93" y1="139.94" x2="83.99" y2="178.45" xlink:href="#linear-gradient"/>
    <linearGradient id="linear-gradient-6" x1="56.48" y1="130.75" x2="93.54" y2="169.26" xlink:href="#linear-gradient"/>
    <linearGradient id="linear-gradient-7" x1="64.71" y1="122.82" x2="101.78" y2="161.33" xlink:href="#linear-gradient"/>
    <linearGradient id="linear-gradient-8" x1="74.82" y1="113.09" x2="111.89" y2="151.6" xlink:href="#linear-gradient"/>
    <linearGradient id="linear-gradient-9" x1="82.5" y1="105.7" x2="119.57" y2="144.21" xlink:href="#linear-gradient"/>
    <linearGradient id="linear-gradient-10" x1="17.58" y1="21.21" x2="127.46" y2="163.67" xlink:href="#linear-gradient"/>
    <linearGradient id="linear-gradient-11" x1="-8.28" y1="41.15" x2="101.59" y2="183.62" xlink:href="#linear-gradient"/>
    <linearGradient id="linear-gradient-12" x1="41.15" y1="3.03" x2="151.02" y2="145.5" xlink:href="#linear-gradient"/>
    <linearGradient id="linear-gradient-13" x1="-7.95" y1="40.9" x2="101.93" y2="183.36" xlink:href="#linear-gradient"/>
    <linearGradient id="linear-gradient-14" x1="-8.25" y1="41.13" x2="101.63" y2="183.59" xlink:href="#linear-gradient"/>
    <linearGradient id="linear-gradient-15" x1="47.05" y1="-1.52" x2="156.92" y2="140.95" xlink:href="#linear-gradient"/>
    <linearGradient id="linear-gradient-16" x1="50.38" y1="-4.09" x2="160.26" y2="138.38" xlink:href="#linear-gradient"/>
    <linearGradient id="linear-gradient-17" x1="52.27" y1="-5.55" x2="162.15" y2="136.92" xlink:href="#linear-gradient"/>
    <linearGradient id="linear-gradient-18" x1="27.65" y1="13.44" x2="137.52" y2="155.91" xlink:href="#linear-gradient"/>
  </defs>
  <g>
    <path class="cls-1" d="M0,174.92l5.18-12.86,5.38,12.86h-2.49l-1.31-3.36H2.41l-1.3,3.36H0Zm2.74-4.15h3.67l-1.84-4.6-1.83,4.6Z"/>
    <path class="cls-6" d="M26.57,173.98v.94h-7.8v-12.61h2.34v11.66h5.46Z"/>
    <path class="cls-4" d="M35.62,174.13h.5c.65,0,1.11-.14,1.37-.43,.26-.29,.39-.81,.39-1.58v-9.81h2.32v9.5c0,1.12-.26,1.93-.79,2.43-.53,.5-1.38,.75-2.56,.75-.18,0-.38,0-.58-.01s-.42-.02-.63-.04v-.81Z"/>
    <path class="cls-5" d="M47.96,174.92l5.18-12.86,5.38,12.86h-2.49l-1.31-3.36h-4.35l-1.3,3.36h-1.11Zm2.74-4.15h3.67l-1.84-4.6-1.83,4.6Z"/>
    <path class="cls-9" d="M74.8,175.23l-2.67-6.74-2.56,6.74-5.23-12.92h2.47l3.41,8.74,1.41-3.71-2.07-5.04h2.45l3.38,8.59,3.19-8.59h1.22l-5,12.92Z"/>
    <path class="cls-7" d="M90.3,168.97v5.95h-2.34v-12.61h2.34v5.73h5.27v-5.73h2.32v12.61h-2.32v-5.95h-5.27Z"/>
    <path class="cls-8" d="M106.08,174.92l5.18-12.86,5.38,12.86h-2.49l-1.31-3.36h-4.35l-1.3,3.36h-1.11Zm2.74-4.15h3.67l-1.84-4.6-1.83,4.6Z"/>
    <path class="cls-2" d="M124.85,174.92v-12.61h4.13c1.57,0,2.75,.31,3.55,.93s1.2,1.54,1.2,2.75c0,.91-.28,1.62-.85,2.14-.57,.52-1.38,.81-2.43,.87l3.34,5.91h-2.62l-3.39-6.39c1.33-.09,2.26-.33,2.81-.74,.55-.41,.82-1.03,.82-1.88,0-.94-.27-1.63-.81-2.09s-1.36-.69-2.45-.69h-.96v11.8h-2.34Z"/>
    <path class="cls-3" d="M140.35,174.92l5.18-12.86,5.38,12.86h-2.49l-1.31-3.36h-4.35l-1.3,3.36h-1.11Zm2.74-4.15h3.67l-1.84-4.6-1.83,4.6Z"/>
  </g>
  <g>
    <path class="cls-17" d="M46.44,55.07c-1.54-1.12-2.39-1.69-2.55-1.69s-.43,.55-.82,1.65c-.39,1.1-.59,1.88-.59,2.35,0,1.1,.63,1.65,1.88,1.65,.52,0,1.38-.22,2.59-.67,1.2-.44,1.8-.85,1.8-1.22,0-.26-.77-.95-2.31-2.08Z"/>
    <path class="cls-18" d="M48.42,113.58c-.5,0-1.14,.28-1.92,.84-.78,.56-1.17,1.12-1.17,1.69,0,1.25,1.47,1.87,4.4,1.87,2.12,0,3.94-.16,5.44-.47-2.25-2.62-4.5-3.94-6.75-3.94Z"/>
    <path class="cls-16" d="M80.85,59.89c3.94-2.06,5.91-3.78,5.91-5.16,0-1.19-.6-3-1.78-5.44-1.44-2.94-2.94-4.41-4.5-4.41s-3.27,1.02-5.11,3.05c-1.84,2.03-2.76,3.83-2.76,5.39,0,3.06,2.75,5.25,8.25,6.56Z"/>
    <path class="cls-15" d="M6.43,71.04c1.2,0,2.4-.23,3.55-.58,1.75-.51,3.47-1.42,5.06-2.3-.06,.03-.12,.05-.17,.08,1.34-.83,2.69-1.66,3.89-2.68,.49-.42,1.37-1.1,1.37-1.83,0-1.56-3.25-5.22-9.75-10.97-5.37,6.37-8.06,10.97-8.06,13.78,0,3,1.37,4.5,4.12,4.5Z"/>
    <path class="cls-10" d="M0,40.18v23.29c1.36-4.36,3.81-8.89,7.36-13.61-.87-.7-3.32-3.93-7.36-9.68Z"/>
    <path class="cls-12" d="M99.97,63.26c2.56,0,3.94-.47,4.12-1.41,.5-1.75-4.16-5.25-13.97-10.5-1,4.94-2.16,8.25-3.47,9.94,6.12,1.31,10.56,1.97,13.31,1.97Z"/>
    <path class="cls-13" d="M112.4,73.77h-.21c-.8,0-1.5,.75-2.09,2.25,.52,.84,1.57,1.26,3.14,1.26l.1-.26v-.89c0-1.15-.31-1.94-.94-2.35Z"/>
    <path class="cls-14" d="M114.96,74.4h-.1v.16c0,.91-.12,1.94-.37,3.09,2.06,.31,3.23,.47,3.51,.47v-.26c0-1.08-1.01-2.23-3.04-3.45Z"/>
    <path class="cls-11" d="M150.32,115.1c-1.19-11.75-4.2-31.46-9.02-59.14-1.37-7.69-3.17-19.18-5.4-34.5-1.13-1-1.59-1.75-1.4-2.25,.5-1.37,1.28-3.4,2.34-6.09,.87-2.25,1.41-3.37,1.59-3.37,.37,0,2.25,3.62,5.62,10.87,3.75,8.06,5.37,12.28,4.87,12.65-.5,.31-1.47-.31-2.91-1.87-.44-.5-1.53-1.62-3.28-3.37,1.97,10.41,4.75,26.37,8.34,47.87V0H16.67l3.51,1.95-6.38,10.87,8.04,4.59-6.58,11.22-9.72-5.4,6.37-10.86L3.9,7.8,8.48,0H0V28.42c.46,.32,.97,.68,1.55,1.1,5.87,4.19,8.62,6.53,8.25,7.03-.37,.63-1.94,.56-4.69-.19,1.06,1.81,3.37,4.37,6.94,7.69,4.19-5.06,7.78-9.81,10.78-14.25l3.28-4.87c.69,0-.09,3.16-2.34,9.47-.75,1.94-3.56,6.09-8.44,12.47,5.19,4.37,7.78,8.66,7.78,12.84,0,6.06-1.16,10.53-3.47,13.4-1.56,1.88-3.92,3.69-7.08,5.44-1.65,.91-3.11,1.58-4.39,2.02-1.29,3.22-1.94,6.39-1.94,9.51,0,6.37,2.94,9.56,8.81,9.56,5.19,0,11.97-4.41,20.34-13.22,6.81-7.12,13.87-12.31,21.18-15.56,4.06-1.69,8.62-3.66,13.68-5.9-1.06-1.62-1.59-3.62-1.59-6s.97-5.89,2.91-10.36c1.94-4.47,3.87-7.79,5.81-9.98-.75-.37-1.28-.84-1.59-1.41-.19-.31-.06-1.58,.37-3.8,.44-2.22,.91-3.33,1.41-3.33,1.19,0,4.97,2.09,11.34,6.28,.56,.37,.84,.75,.84,1.12,0,.75-1.03,.78-3.09,.09,1.13,1.63,4.06,3.78,8.81,6.47,4.75,2.69,7.78,4.84,9.09,6.47,1.44,1.81,2.16,4.59,2.16,8.34s-.72,7.09-2.15,10.22c-1.25,2.56-3.75,3.84-7.49,3.84-7.18,0-13.52-1.06-19.01-3.19-3.43,2.25-9.33,4.97-17.7,8.15-5,1.88-9.46,4.41-13.39,7.59-2.5,2-6.52,5.87-12.08,11.62-6.62,6.81-12.36,10.22-17.23,10.22-3.93,0-7.24-1.25-9.93-3.75-3-2.81-4.49-6.75-4.49-11.81,0-3.64,.66-7.17,1.95-10.6-.02,0-.05,0-.08,0-2.36,0-4.07-1.02-5.12-3.05v72.96H5.38c-.73-2.48-1.1-5.26-1.1-8.35,0-4.31,.69-8.75,2.06-13.31,1.25-4.19,2.25-6.19,3-6,.13,.06,.19,.22,.19,.47,0-.06-.37,1.37-1.12,4.31-.75,2.94-1.12,5.81-1.12,8.62,0,4.81,1.41,8.84,4.23,12.09,.72,.83,1.51,1.55,2.36,2.17h20.46c4.23-1.84,8.86-4.62,13.89-8.35,9.01-6.75,13.52-11.37,13.52-13.87,0-1.63-.41-3-1.22-4.12-3.81,1.62-7.56,2.44-11.25,2.44-6.62,0-9.94-2.53-9.94-7.59,0-3.19,1.06-6.37,3.19-9.56,2.44-3.62,5.22-5.44,8.34-5.44,2.62,0,5.72,1.94,9.28,5.81,.82,.87,1.68,2.36,2.59,4.46,7.08-2.5,16.93-5.86,29.56-10.09-6.06-1.25-13.31-2.69-21.75-4.31-.56-.06-1.22,.19-1.97,.75-.31,.25-.78,.31-1.41,.19-3.69-.75-9.43-1.5-17.25-2.25-.56-.06-.84-.41-.84-1.03,0-.56,.56-1.81,1.69-3.75,1.38-2.25,2.75-3.87,4.12-4.87,1.06-.81,3-1.22,5.81-1.22s5.25,.34,7.5,1.02c16.81,5.44,33.05,8.16,48.74,8.16h5.44c.87-.06,1.31,.09,1.31,.47-1.31,2.94-2.66,5.56-4.03,7.87-.31,.56-.62,.84-.94,.84-3.88-.25-6.47-.22-7.78,.09,.81,8.5,5.06,12.75,12.75,12.75,1.56,0,3.42-.56,5.58-1.69,2.16-1.12,3.23-2.09,3.23-2.91,0-6.69-2.59-20.04-8.28-52.72-1.37-7.69-3.15-19.18-5.34-34.49-1.19-1-1.69-1.75-1.5-2.25,.56-1.37,1.34-3.4,2.34-6.09,.94-2.25,1.5-3.37,1.69-3.37,.56,0,2.44,3.62,5.62,10.87,3.25,7.44,4.87,11.56,4.87,12.37,0,.13-.03,.22-.09,.28-.44,.31-1.38-.31-2.81-1.87-.5-.5-1.59-1.62-3.28-3.37,2.56,14.75,4.9,23.16,7.53,37.91,2.69,15.93,4.06,26.65,4.12,32.15,0,3.5-.66,7.75-1.97,12.75-2.06,7.87-6.72,11.81-13.96,11.81,0,0,0,0,0,0,0,0,0,0,0,0-4.25,0-7.65-1.5-10.22-4.5-2.38-2.81-3.56-6.31-3.56-10.5,0-2.25,.41-4.5,1.22-6.75-5.25,1-12.65,3.44-22.21,7.31-9.73,4-17.04,6.93-21.95,8.78-.1,6.53-1.21,11.39-3.36,14.56-3.13,4.54-7.42,8.98-12.87,13.32h102.6v-25.45c-.13-.56-.23-1.38-.29-2.47-.31-4.81-.47-7.5-.47-8.06ZM20.81,138.04c-.24,.72-.53,1.44-.94,2.08-.55,.87-1.35,1.67-2.45,1.67h-.76c-1.79-.24-2.68-1.5-2.68-3.79v-.35c0-.46,.06-.92,.14-1.38,.35-1.89,1.12-3.7,1.92-5.44,.48-1.04,.96-2.03,1.31-3.06,.3-.91,.49-1.85,.46-2.89-.06-2.09-.89-4.09-2.15-5.74-.84-1.11-1.83-2.1-2.95-2.93-.26-.19-1.42-.8-1.42-1.18v-.15c.64-1.04,1.26-1.84,1.87-2.38h.2c4.35,2.53,6.53,6.02,6.53,10.47v.71c0,1.74-.58,3.48-1.19,5.09-.85,2.25-2.63,4.64-2.83,7.05-.11,1.37,.4,2.98,2,2.98,.99,0,1.75-.83,2.29-1.58,.16-.23,1.05-1.6,1.04-.55,0,.42-.26,.96-.4,1.36ZM42.64,9.22c1.44-2.88,2.55-4.61,3.35-5.21h.45c4.51,0,7.91,5.21,10.19,15.62v.22h.22c1.93-12.35,4.71-18.52,8.33-18.52,1.24,0,2.55,1.24,3.94,3.72,.1,.25,.15,.59,.15,1.04v.45c-.45,2.48-.99,3.72-1.64,3.72-.15,0-1.04-.82-2.68-2.45l-1.04-.45c-1.84,0-3.65,5.33-5.43,15.99-1.19,3.32-2.08,4.98-2.68,4.98-.45,0-.87-1.59-1.26-4.76-1.88-5.55-3.55-9.15-4.98-10.78h-.67l-1.04,.82h-.59c-1.39,0-2.93-1.31-4.61-3.94v-.45Zm-10.37,68.34c-1.22,1.4-2.69,2.89-4.25,3.92-.26,.17-.6,.35-.84,.11,.52-1.09,1.65-1.9,2.41-2.82,.64-.76,1.26-1.54,1.83-2.35,.57-.81,1.43-1.9,1.43-2.96v-.14c0-.85-.64-1.29-1.44-1.29-.82,0-1.43,.29-2.17,.62-.08,.04-.18,.07-.26,.03-.1-.06-.09-.21-.07-.33,.16-.78,.33-1.58,.67-2.3,.75-1.57,2.88-2.65,4.5-1.63,.63,.39,.88,1.18,.97,1.92,.04,.35,.06,.69,.05,1.02-.06,2.35-1.33,4.46-2.84,6.19Zm11.62-14.53c-2.2,0-3.29-1.36-3.29-4.08,0-3.14,.99-6.2,2.98-9.17,.57-1.73,1.02-2.59,1.33-2.59s.36,.21,.16,.63c-.31,.73-.47,1.39-.47,1.96,4.08,2.4,6.12,4.31,6.12,5.72,0,5.02-2.27,7.53-6.82,7.53Zm62.56-22.95h-.61c-3.42,0-3.03-5.1-2.79-7.34,.19-1.8,.54-3.56,1.1-5.28,.4-1.23,.88-2.43,1.43-3.61,.21-.47,1.58-3.83,2.01-3.83h.3c-1.97,6.26-2.95,10.24-2.95,11.96,0,2.62,.66,3.94,1.97,3.94,.96,0,2.37-.86,3.48-3.18-.91,4.89-2.22,7.34-3.94,7.34Zm12.38,34.32c.52,1.08,.78,1.83,.78,2.25,0,1.39-.61,2.84-1.83,4.34h-.16l-4.19-.37c-3.35,5.06-9.3,8.9-17.84,11.51-.14,0-.21-.09-.21-.26,.56-.49,4.55-3.05,11.98-7.69,1.92-1.43,3.44-2.7,4.55-3.82v-.1c-2.09-.45-3.14-1.57-3.14-3.35,0-1.15,.31-2.35,.94-3.61-.17-.59-.26-1.1-.26-1.52v-.37c.28-1.39,.91-2.09,1.88-2.09h.84c2.34,.63,4.55,2.32,6.65,5.08ZM123.98,7.5c-.56,1.25-.97,1.94-1.22,2.06-7.94,2.87-65.09,25.04-73.02,27.98-10.12,3.87-17.4,7.09-21.84,9.65-.25-.56-.25-1.5,0-2.81,.31-1.37,.66-2.16,1.03-2.34,14.12-6.37,78.8-31.54,95.61-36.98,.19,.37,0,1.19-.56,2.44Zm-25.55,132.93l-11.68-6.85,5.6-10.07,11.68,6.85-5.59,10.07Z"/>
  </g>
</svg>